<svg width="24" height="23" viewBox="0 0 24 23" fill="none" xmlns="http://www.w3.org/2000/svg">
<path d="M7.8667 1.9165V5.74984" stroke="white" stroke-linecap="round" stroke-linejoin="round"/>
<path d="M15.5332 1.9165V5.74984" stroke="white" stroke-linecap="round" stroke-linejoin="round"/>
<path d="M20.325 16.2918V5.75016C20.325 5.24183 20.123 4.75432 19.7636 4.39487C19.4041 4.03543 18.9166 3.8335 18.4083 3.8335H4.99162C4.48329 3.8335 3.99577 4.03543 3.63633 4.39487C3.27689 4.75432 3.07495 5.24183 3.07495 5.75016V19.1668C3.07495 19.6752 3.27689 20.1627 3.63633 20.5221C3.99577 20.8816 4.48329 21.0835 4.99162 21.0835H15.5333L20.325 16.2918Z" stroke="white" stroke-linecap="round" stroke-linejoin="round"/>
<path d="M3.07495 9.5835H20.325" stroke="white" stroke-linecap="round" stroke-linejoin="round"/>
<path d="M14.575 21.0835V17.2502C14.575 16.7418 14.7769 16.2543 15.1363 15.8949C15.4958 15.5354 15.9833 15.3335 16.4916 15.3335H20.325" stroke="white" stroke-linecap="round" stroke-linejoin="round"/>
</svg>
