<svg width="27" height="29" viewBox="0 0 27 29" fill="none" xmlns="http://www.w3.org/2000/svg">
<path fill-rule="evenodd" clip-rule="evenodd" d="M3.30586 13.291C3.30604 11.3292 3.87229 9.40914 4.93665 7.76118C6.00101 6.11322 7.51828 4.80738 9.30639 4.00035C11.0945 3.19332 13.0775 2.91937 15.0174 3.2114C16.9574 3.50342 18.7719 4.349 20.2431 5.64667C21.7144 6.94435 22.78 8.63899 23.3121 10.5273C23.8441 12.4155 23.82 14.4172 23.2427 16.2921C22.6653 18.167 21.5592 19.8355 20.0571 21.0974C18.555 22.3593 16.7207 23.1609 14.7743 23.4061V15.8395H17.3228C17.6608 15.8395 17.9849 15.7053 18.2238 15.4663C18.4628 15.2274 18.5971 14.9032 18.5971 14.5653C18.5971 14.2273 18.4628 13.9032 18.2238 13.6642C17.9849 13.4253 17.6608 13.291 17.3228 13.291H14.7743V10.7425C14.7743 10.4045 14.9085 10.0804 15.1475 9.84144C15.3865 9.60246 15.7106 9.46821 16.0485 9.46821H16.6857C17.0236 9.46821 17.3477 9.33396 17.5867 9.09499C17.8257 8.85602 17.9599 8.5319 17.9599 8.19394C17.9599 7.85599 17.8257 7.53187 17.5867 7.2929C17.3477 7.05393 17.0236 6.91968 16.6857 6.91968H16.0485C15.0347 6.91968 14.0623 7.32244 13.3454 8.03935C12.6285 8.75626 12.2257 9.72861 12.2257 10.7425V13.291H9.6772C9.33924 13.291 9.01513 13.4253 8.77615 13.6642C8.53718 13.9032 8.40293 14.2273 8.40293 14.5653C8.40293 14.9032 8.53718 15.2274 8.77615 15.4663C9.01513 15.7053 9.33924 15.8395 9.6772 15.8395H12.2257V23.4061C9.76208 23.0958 7.49643 21.8968 5.85408 20.0344C4.21173 18.172 3.30563 15.7741 3.30586 13.291ZM13.5 26.0337C20.5378 26.0337 26.2427 20.3288 26.2427 13.291C26.2427 6.25324 20.5378 0.54834 13.5 0.54834C6.46222 0.54834 0.757324 6.25324 0.757324 13.291C0.757324 20.3288 6.46222 26.0337 13.5 26.0337Z" fill="#1B1C1E"/>
</svg>
