<svg width="18" height="18" viewBox="0 0 18 18" fill="none" xmlns="http://www.w3.org/2000/svg">
<path d="M6.35776 14.2618C7.70966 14.9553 9.26482 15.1432 10.743 14.7915C12.2211 14.4398 13.5251 13.5718 14.4198 12.3438C15.3146 11.1158 15.7413 9.60859 15.6232 8.09378C15.505 6.57898 14.8497 5.15619 13.7753 4.0818C12.7009 3.00742 11.2781 2.35209 9.76331 2.23392C8.2485 2.11574 6.7413 2.54249 5.51329 3.43726C4.28529 4.33202 3.41725 5.63597 3.06558 7.11412C2.71391 8.59227 2.90176 10.1474 3.59526 11.4993L2.17859 15.6785L6.35776 14.2618Z" stroke="#273D2D" stroke-width="1.5" stroke-linecap="round" stroke-linejoin="round"/>
<path d="M7.20062 6.47013C7.36715 5.99673 7.69586 5.59754 8.12851 5.34327C8.56116 5.08899 9.06984 4.99604 9.56446 5.08088C10.0591 5.16572 10.5077 5.42288 10.8309 5.8068C11.1541 6.19071 11.331 6.67663 11.3302 7.17846C11.3302 8.59513 9.20521 9.30346 9.20521 9.30346" stroke="#273D2D" stroke-width="1.5" stroke-linecap="round" stroke-linejoin="round"/>
<path d="M9.2619 12.137H9.26964" stroke="#273D2D" stroke-width="1.5" stroke-linecap="round" stroke-linejoin="round"/>
</svg>
