<svg width="23" height="23" viewBox="0 0 23 23" fill="none" xmlns="http://www.w3.org/2000/svg">
<path d="M7.57085 19.1666C9.39991 20.1049 11.5039 20.359 13.5038 19.8832C15.5036 19.4075 17.2678 18.2331 18.4784 16.5716C19.6889 14.9102 20.2663 12.8711 20.1064 10.8216C19.9465 8.77218 19.0599 6.84723 17.6063 5.39365C16.1528 3.94007 14.2278 3.05345 12.1784 2.89357C10.1289 2.73369 8.08976 3.31105 6.42835 4.52162C4.76693 5.73218 3.59252 7.49634 3.11673 9.4962C2.64095 11.496 2.89509 13.6001 3.83335 15.4291L1.91669 21.0833L7.57085 19.1666Z" stroke="#273D2D" stroke-width="2" stroke-linecap="round" stroke-linejoin="round"/>
<path d="M8.71124 8.62506C8.93655 7.98457 9.38126 7.44449 9.96662 7.10048C10.552 6.75646 11.2402 6.63071 11.9094 6.74549C12.5786 6.86027 13.1855 7.20819 13.6228 7.72761C14.06 8.24703 14.2993 8.90443 14.2983 9.58339C14.2983 11.5001 11.4233 12.4584 11.4233 12.4584" stroke="#273D2D" stroke-width="2" stroke-linecap="round" stroke-linejoin="round"/>
<path d="M11.5 16.2917H11.5104" stroke="#273D2D" stroke-width="2" stroke-linecap="round" stroke-linejoin="round"/>
<path d="M7.57085 19.1666C9.39991 20.1049 11.5039 20.359 13.5038 19.8832C15.5036 19.4075 17.2678 18.2331 18.4784 16.5716C19.6889 14.9102 20.2663 12.8711 20.1064 10.8216C19.9465 8.77218 19.0599 6.84723 17.6063 5.39365C16.1528 3.94007 14.2278 3.05345 12.1784 2.89357C10.1289 2.73369 8.08976 3.31105 6.42835 4.52162C4.76693 5.73218 3.59252 7.49634 3.11673 9.4962C2.64095 11.496 2.89509 13.6001 3.83335 15.4291L1.91669 21.0833L7.57085 19.1666Z" stroke="#273D2D" stroke-width="2" stroke-linecap="round" stroke-linejoin="round"/>
</svg>
