<svg width="24" height="25" viewBox="0 0 24 25" fill="none" xmlns="http://www.w3.org/2000/svg">
<path d="M6.94088 0.324219H16.9932C20.8226 0.324219 23.9341 3.43565 23.9341 7.2651V17.3174C23.9341 19.1582 23.2028 20.9237 21.9011 22.2253C20.5995 23.527 18.834 24.2583 16.9932 24.2583H6.94088C3.11143 24.2583 0 21.1469 0 17.3174V7.2651C0 5.42426 0.731269 3.65882 2.03294 2.35716C3.3346 1.05549 5.10004 0.324219 6.94088 0.324219ZM6.70154 2.71763C5.55895 2.71763 4.46316 3.17152 3.65523 3.97945C2.8473 4.78738 2.39341 5.88317 2.39341 7.02576V17.5567C2.39341 19.9382 4.3201 21.8649 6.70154 21.8649H17.2325C18.3751 21.8649 19.4709 21.411 20.2788 20.6031C21.0868 19.7951 21.5407 18.6993 21.5407 17.5567V7.02576C21.5407 4.64432 19.614 2.71763 17.2325 2.71763H6.70154ZM18.2497 4.51268C18.6465 4.51268 19.0269 4.67028 19.3075 4.95081C19.588 5.23135 19.7456 5.61183 19.7456 6.00856C19.7456 6.40529 19.588 6.78577 19.3075 7.06631C19.0269 7.34684 18.6465 7.50444 18.2497 7.50444C17.853 7.50444 17.4725 7.34684 17.192 7.06631C16.9114 6.78577 16.7538 6.40529 16.7538 6.00856C16.7538 5.61183 16.9114 5.23135 17.192 4.95081C17.4725 4.67028 17.853 4.51268 18.2497 4.51268ZM11.967 6.30774C13.554 6.30774 15.0759 6.93814 16.198 8.06027C17.3201 9.18239 17.9506 10.7043 17.9506 12.2913C17.9506 13.8782 17.3201 15.4001 16.198 16.5222C15.0759 17.6444 13.554 18.2748 11.967 18.2748C10.3801 18.2748 8.85818 17.6444 7.73605 16.5222C6.61392 15.4001 5.98352 13.8782 5.98352 12.2913C5.98352 10.7043 6.61392 9.18239 7.73605 8.06027C8.85818 6.93814 10.3801 6.30774 11.967 6.30774ZM11.967 8.70114C11.0149 8.70114 10.1017 9.07938 9.42844 9.75266C8.75517 10.4259 8.37692 11.3391 8.37692 12.2913C8.37692 13.2434 8.75517 14.1566 9.42844 14.8298C10.1017 15.5031 11.0149 15.8814 11.967 15.8814C12.9192 15.8814 13.8323 15.5031 14.5056 14.8298C15.1789 14.1566 15.5571 13.2434 15.5571 12.2913C15.5571 11.3391 15.1789 10.4259 14.5056 9.75266C13.8323 9.07938 12.9192 8.70114 11.967 8.70114Z" fill="#1B1C1E"/>
</svg>
