<svg width="25" height="25" viewBox="0 0 25 25" fill="none" xmlns="http://www.w3.org/2000/svg">
<path d="M16.7629 21.5884V19.5884C16.7629 18.5275 16.3415 17.5101 15.5914 16.76C14.8412 16.0098 13.8238 15.5884 12.7629 15.5884H6.76294C5.70207 15.5884 4.68466 16.0098 3.93451 16.76C3.18437 17.5101 2.76294 18.5275 2.76294 19.5884V21.5884" stroke="#1B1C1E" stroke-width="1.5" stroke-linecap="round" stroke-linejoin="round"/>
<path d="M9.76294 11.5884C11.9721 11.5884 13.7629 9.79752 13.7629 7.58838C13.7629 5.37924 11.9721 3.58838 9.76294 3.58838C7.5538 3.58838 5.76294 5.37924 5.76294 7.58838C5.76294 9.79752 7.5538 11.5884 9.76294 11.5884Z" stroke="#1B1C1E" stroke-width="1.5" stroke-linecap="round" stroke-linejoin="round"/>
<path d="M20.7629 21.5884V19.5884C20.7623 18.7021 20.4673 17.8412 19.9243 17.1407C19.3813 16.4402 18.6211 15.94 17.7629 15.7184" stroke="#1B1C1E" stroke-width="1.5" stroke-linecap="round" stroke-linejoin="round"/>
<path d="M14.7629 3.71838C15.6234 3.93868 16.386 4.43908 16.9306 5.14069C17.4752 5.8423 17.7708 6.70521 17.7708 7.59338C17.7708 8.48155 17.4752 9.34446 16.9306 10.0461C16.386 10.7477 15.6234 11.2481 14.7629 11.4684" stroke="#1B1C1E" stroke-width="1.5" stroke-linecap="round" stroke-linejoin="round"/>
</svg>
