<svg width="33" height="33" viewBox="0 0 33 33" fill="none" xmlns="http://www.w3.org/2000/svg">
<path d="M16.5 30.25H24.75C25.4793 30.25 26.1788 29.9603 26.6945 29.4445C27.2103 28.9288 27.5 28.2293 27.5 27.5V9.625L20.625 2.75H8.25C7.52065 2.75 6.82118 3.03973 6.30546 3.55546C5.78973 4.07118 5.5 4.77065 5.5 5.5V9.625" stroke="black" stroke-width="2.5" stroke-linecap="round" stroke-linejoin="round"/>
<path d="M19.25 2.75V8.25C19.25 8.97935 19.5397 9.67882 20.0555 10.1945C20.5712 10.7103 21.2707 11 22 11H27.5" stroke="black" stroke-width="2.5" stroke-linecap="round" stroke-linejoin="round"/>
<path d="M6.875 23.375C7.4167 23.375 7.9531 23.2683 8.45357 23.061C8.95404 22.8537 9.40877 22.5499 9.79182 22.1668C10.1749 21.7838 10.4787 21.329 10.686 20.8286C10.8933 20.3281 11 19.7917 11 19.25C11 18.7083 10.8933 18.1719 10.686 17.6714C10.4787 17.171 10.1749 16.7162 9.79182 16.3332C9.40877 15.9501 8.95404 15.6463 8.45357 15.439C7.9531 15.2317 7.4167 15.125 6.875 15.125C5.78098 15.125 4.73177 15.5596 3.95818 16.3332C3.1846 17.1068 2.75 18.156 2.75 19.25C2.75 20.344 3.1846 21.3932 3.95818 22.1668C4.73177 22.9404 5.78098 23.375 6.875 23.375Z" stroke="black" stroke-width="2.5" stroke-linecap="round" stroke-linejoin="round"/>
<path d="M9.625 22.6875L11 30.25L6.875 28.875L2.75 30.25L4.125 22.6875" stroke="black" stroke-width="2.5" stroke-linecap="round" stroke-linejoin="round"/>
</svg>
